<svg width="20" height="20" viewBox="0 0 20 20" fill="none" xmlns="http://www.w3.org/2000/svg">
<path d="M18.8656 13.8767C18.9068 14.2338 18.9549 14.6356 19.0098 15.082C19.0648 15.5285 19.1163 15.9852 19.1644 16.4523C19.2125 16.9193 19.264 17.3829 19.3189 17.8431C19.3739 18.3033 19.4219 18.7188 19.4631 19.0897C19.5456 19.7353 19.264 20.0375 18.6184 19.9963C18.2749 19.9688 17.8869 19.931 17.4542 19.883C17.0215 19.8349 16.5785 19.7834 16.1252 19.7284C15.6719 19.6735 15.222 19.6185 14.7756 19.5636C14.3291 19.5086 13.9205 19.4606 13.5496 19.4194C13.1512 19.3781 12.8971 19.2648 12.7872 19.0794C12.6773 18.8939 12.7391 18.6845 12.9726 18.4509C13.1237 18.3136 13.3092 18.1247 13.529 17.8843C13.7487 17.6439 13.9342 17.4482 14.0853 17.2971C14.2364 17.1322 14.2845 16.9811 14.2295 16.8438C14.1746 16.7064 14.0647 16.5484 13.8999 16.3698C13.5152 15.999 13.1649 15.6624 12.849 15.3602C12.5331 15.058 12.1828 14.7077 11.7982 14.3094C11.7157 14.2269 11.6333 14.1377 11.5509 14.0415C11.4685 13.9454 11.4067 13.8389 11.3655 13.7221C11.3243 13.6054 11.3174 13.4817 11.3449 13.3512C11.3723 13.2207 11.4616 13.0799 11.6127 12.9288C11.6951 12.8464 11.7638 12.7743 11.8188 12.7125C11.8737 12.6507 11.9287 12.5957 11.9836 12.5477C12.0386 12.4996 12.0969 12.4446 12.1587 12.3828C12.2206 12.321 12.2995 12.2352 12.3957 12.1253C12.6704 11.8505 12.9246 11.7338 13.1581 11.775C13.3916 11.8162 13.6457 11.9742 13.9205 12.2489C14.1952 12.5236 14.4768 12.8018 14.7653 13.0834C15.0537 13.365 15.3765 13.6844 15.7337 14.0415C15.9947 14.2888 16.2179 14.4605 16.4033 14.5566C16.5888 14.6528 16.7708 14.6116 16.9494 14.433C17.073 14.3094 17.2275 14.1617 17.413 13.99C17.5984 13.8183 17.7598 13.6638 17.8972 13.5264C18.1307 13.2929 18.3402 13.2036 18.5256 13.2585C18.7111 13.3135 18.8244 13.5195 18.8656 13.8767ZM0.898222 6.87103C0.857012 6.51388 0.808934 6.11209 0.753988 5.66565C0.699042 5.21922 0.64753 4.76248 0.599452 4.29543C0.551374 3.82839 0.499862 3.36478 0.444916 2.90461C0.38997 2.44444 0.341892 2.02891 0.300683 1.65802C0.259473 1.30087 0.304117 1.05361 0.434614 0.916248C0.565111 0.778882 0.795198 0.723936 1.12487 0.751409C1.46829 0.778882 1.85635 0.816658 2.28905 0.864736C2.72175 0.912814 3.16475 0.964326 3.61806 1.01927C4.07136 1.07422 4.52123 1.12916 4.96767 1.18411C5.41411 1.23906 5.82277 1.28713 6.19366 1.32834C6.60575 1.36955 6.86331 1.48288 6.96634 1.66832C7.06936 1.85377 7.00411 2.06325 6.77059 2.29677C6.63322 2.43413 6.46495 2.61271 6.26577 2.83249C6.06659 3.05228 5.89145 3.23772 5.74035 3.38882C5.57551 3.55366 5.52057 3.70476 5.57551 3.84213C5.63046 3.97949 5.74722 4.13746 5.92579 4.31604C6.10437 4.50835 6.27264 4.67662 6.43061 4.82086C6.58858 4.96509 6.74312 5.10932 6.89422 5.25356C7.04532 5.39779 7.20329 5.55233 7.36813 5.71717L7.88325 6.23229C7.96567 6.3147 8.04465 6.41086 8.1202 6.52075C8.19576 6.63065 8.2507 6.74741 8.28504 6.87103C8.31938 6.99466 8.31595 7.12516 8.27474 7.26253C8.23353 7.39989 8.14424 7.53726 8.00688 7.67462L7.78022 7.90128C7.72528 7.95622 7.67377 8.01117 7.62569 8.06611C7.57761 8.12106 7.51923 8.17601 7.45055 8.23095L7.2239 8.47821C6.94916 8.75294 6.71221 8.85596 6.51303 8.78728C6.31385 8.7186 6.07689 8.54689 5.80216 8.27216C5.52743 7.99743 5.26644 7.73987 5.01918 7.49948C4.77192 7.25909 4.46972 6.96032 4.11257 6.60317C3.86531 6.35592 3.64553 6.18421 3.45322 6.08805C3.26091 5.9919 3.07546 6.03311 2.89689 6.21168C2.77326 6.34905 2.60155 6.51732 2.38177 6.7165C2.16198 6.91568 1.98341 7.08395 1.84604 7.22132C1.61252 7.45484 1.40647 7.54412 1.2279 7.48918C1.04932 7.43423 0.939431 7.22818 0.898222 6.87103ZM18.5771 0.730805C18.9343 0.689595 19.1815 0.734239 19.3189 0.864736C19.4563 0.995233 19.5112 1.23219 19.4838 1.5756C19.4563 1.91901 19.4185 2.30707 19.3704 2.73977C19.3223 3.17247 19.2708 3.61548 19.2159 4.06878C19.1609 4.52209 19.106 4.97196 19.0511 5.4184C18.9961 5.86483 18.948 6.2735 18.9068 6.64438C18.8656 7.04274 18.7523 7.29687 18.5668 7.40676C18.3814 7.51665 18.1719 7.44797 17.9384 7.20071C17.801 7.06335 17.6225 6.89507 17.4027 6.69589C17.1829 6.49671 16.9974 6.32157 16.8463 6.17047C16.6815 6.01937 16.5304 5.96786 16.393 6.01594C16.2557 6.06401 16.0977 6.17734 15.9191 6.35591C15.5482 6.7268 15.222 7.06335 14.9404 7.36555C14.6588 7.66775 14.3257 8.01117 13.9411 8.39579C13.8586 8.47821 13.7625 8.55719 13.6526 8.63275C13.5427 8.7083 13.4259 8.76324 13.3023 8.79758C13.1787 8.83193 13.0482 8.82849 12.9108 8.78728C12.7735 8.74607 12.6361 8.64992 12.4987 8.49881C12.4163 8.41639 12.3442 8.34771 12.2824 8.29277C12.2206 8.23782 12.1622 8.18287 12.1072 8.12793C12.0523 8.07298 11.9939 8.01804 11.9321 7.96309C11.8703 7.90814 11.7913 7.82572 11.6951 7.71583C11.4204 7.4411 11.3105 7.20071 11.3655 6.99466C11.4204 6.78862 11.5921 6.54823 11.8806 6.2735L12.6636 5.4493C12.9246 5.17457 13.2336 4.85863 13.5908 4.50148C13.8518 4.25423 14.0303 4.03444 14.1265 3.84213C14.2227 3.64982 14.1746 3.47124 13.9823 3.3064C13.8586 3.18278 13.7007 3.0145 13.5084 2.80159C13.316 2.58867 13.1512 2.41353 13.0138 2.27616C12.7803 2.04264 12.691 1.8366 12.746 1.65802C12.8009 1.47945 13.007 1.36955 13.3641 1.32834C13.7213 1.28713 14.1231 1.23906 14.5695 1.18411C15.0159 1.12916 15.4761 1.07765 15.95 1.02957C16.4239 0.981496 16.8875 0.929984 17.3409 0.875038C17.7942 0.820092 18.2063 0.772014 18.5771 0.730805ZM7.18269 12.1253C7.26511 12.2077 7.33722 12.2764 7.39904 12.3313C7.46085 12.3863 7.51923 12.4412 7.57418 12.4961L7.73902 12.6816L7.98627 12.9082C8.261 13.183 8.3812 13.4337 8.34686 13.6603C8.31252 13.887 8.15111 14.1445 7.86264 14.433C7.60165 14.694 7.32692 14.9722 7.03845 15.2675C6.74998 15.5628 6.42718 15.8891 6.07003 16.2462C5.82277 16.4935 5.66823 16.6961 5.60642 16.8541C5.5446 17.012 5.60298 17.1803 5.78156 17.3589C5.91892 17.4825 6.07346 17.637 6.24517 17.8225C6.41687 18.0079 6.57141 18.1693 6.70878 18.3067C6.9423 18.5402 7.02815 18.7463 6.96634 18.9248C6.90452 19.1034 6.69504 19.2133 6.33789 19.2545C5.98074 19.2957 5.58238 19.3438 5.14281 19.3988C4.70324 19.4537 4.2465 19.5086 3.77259 19.5636C3.29868 19.6185 2.83164 19.6735 2.37146 19.7284C1.91129 19.7834 1.49576 19.8315 1.12487 19.8727C0.781461 19.9001 0.537638 19.8486 0.393404 19.7181C0.249171 19.5876 0.19079 19.3575 0.218263 19.0279C0.245737 18.6845 0.283512 18.2964 0.33159 17.8637C0.379668 17.431 0.43118 16.988 0.486126 16.5347C0.541072 16.0814 0.596018 15.6315 0.650964 15.1851C0.70591 14.7386 0.753988 14.33 0.795198 13.9591C0.836407 13.547 0.949734 13.2894 1.13518 13.1864C1.32062 13.0834 1.5301 13.1486 1.76362 13.3822C1.90099 13.5195 2.08987 13.6981 2.33026 13.9179C2.57064 14.1377 2.76639 14.3231 2.91749 14.4742C3.08233 14.639 3.2197 14.7112 3.32959 14.6906C3.43948 14.67 3.57685 14.5704 3.74168 14.3918C3.92026 14.2132 4.09197 14.0381 4.2568 13.8664C4.42164 13.6947 4.58648 13.5264 4.75132 13.3615C4.91616 13.1967 5.08443 13.025 5.25614 12.8464C5.42784 12.6679 5.60985 12.4824 5.80216 12.2901C5.88458 12.2077 5.97387 12.1253 6.07003 12.0428C6.16618 11.9604 6.27264 11.8986 6.3894 11.8574C6.50616 11.8162 6.62979 11.8128 6.76029 11.8471C6.89078 11.8814 7.03158 11.9742 7.18269 12.1253Z" fill="#3F8CFF"/>
</svg>
