<?xml version="1.0" standalone="no"?><!DOCTYPE svg PUBLIC "-//W3C//DTD SVG 1.1//EN" "http://www.w3.org/Graphics/SVG/1.1/DTD/svg11.dtd"><svg t="1691111884147" class="icon" viewBox="0 0 1024 1024" version="1.1" xmlns="http://www.w3.org/2000/svg" p-id="2509" xmlns:xlink="http://www.w3.org/1999/xlink" width="200" height="200"><path d="M341.333333 725.333333h298.666667V298.666667H256v426.666666h85.333333z m-170.666666 0V213.333333h554.666666v128h128v384c0 46.933333-38.4 85.333333-85.333333 85.333334H256c-46.933333 0-85.333333-38.4-85.333333-85.333334z m554.666666-298.666666v277.333333c0 12.8 8.533333 21.333333 21.333334 21.333333s21.333333-8.533333 21.333333-21.333333V426.666667h-42.666667zM298.666667 341.333333h298.666666v85.333334H298.666667V341.333333z m0 128h298.666666v85.333334H298.666667v-85.333334z m0 128h213.333333v85.333334H298.666667v-85.333334z" fill="#444444" p-id="2510"></path></svg>