<svg width="22" height="22" viewBox="0 0 22 22" fill="none" xmlns="http://www.w3.org/2000/svg">
<path d="M16.8454 11.3724C19.5784 11.3724 21.7927 13.5959 21.7927 16.3376V16.4167C21.7927 19.0362 19.4167 21.251 16.9583 21.251H15.8046C15.7832 21.251 15.7619 21.2501 15.7406 21.2483C11.8331 20.9239 7.812 19.2138 5.28188 16.8332C2.29567 14.0236 0.207275 9.71625 0.207275 5.71415C0.207275 2.82463 2.35038 0.748962 5.15459 0.748962C7.8873 0.748962 10.1016 2.9725 10.1016 5.71415C10.1016 7.64465 8.97984 9.23769 7.26546 10.0082C7.84478 10.9416 8.54104 11.7972 9.33734 12.554C10.2587 13.4288 11.2808 14.1368 12.3525 14.6313C13.0204 12.6973 14.744 11.3724 16.8456 11.3724H16.8454Z" fill="white"/>
</svg>
