<svg width="19" height="19" viewBox="0 0 19 19" fill="none" xmlns="http://www.w3.org/2000/svg">
<path fill-rule="evenodd" clip-rule="evenodd" d="M10.0421 0.636247C9.40227 0.2456 8.59768 0.2456 7.95782 0.636246L1.84883 4.36588C0.559279 5.15317 0.574848 7.03115 1.87728 7.79696L8.00921 11.4024C8.63632 11.7712 9.4142 11.7703 10.0405 11.4001L16.1337 7.79909C17.4328 7.03137 17.4462 5.15655 16.1583 4.37028L10.0421 0.636247ZM16.603 9.47088C17.0832 9.19802 17.6937 9.36608 17.9665 9.84625C18.2199 10.2921 18.0931 10.8503 17.6892 11.1463L17.5912 11.2097L10.9966 14.9572C10.1669 15.4329 9.15417 15.4657 8.29633 15.0535L8.11501 14.9584L1.59821 11.207C1.11956 10.9314 0.954906 10.3201 1.23044 9.84142C1.48629 9.39696 2.03172 9.22324 2.49157 9.42129L2.59599 9.47365L9.1094 13.2231C9.34968 13.3601 9.64276 13.377 9.89822 13.2725L10.0051 13.2202L16.603 9.47088ZM16.5061 13.1307C16.9863 12.8579 17.5967 13.0259 17.8696 13.5061C18.1229 13.952 17.9961 14.5102 17.5923 14.8061L17.4942 14.8696L10.8997 18.617C10.0699 19.0928 9.05721 19.1255 8.19938 18.7133L8.01805 18.6182L1.50125 14.8668C1.02261 14.5913 0.857949 13.9799 1.13348 13.5013C1.38933 13.0568 1.93476 12.8831 2.39461 13.0811L2.49904 13.1335L9.01244 16.8829C9.25272 17.02 9.5458 17.0369 9.80126 16.9323L9.90818 16.8801L16.5061 13.1307Z" fill="#7D8592"/>
</svg>
