<svg width="18" height="18" viewBox="0 0 18 18" fill="none" xmlns="http://www.w3.org/2000/svg">
<path d="M3.83957 1.62778C3.00286 2.21312 2.27689 2.93382 1.68099 3.76878C0.483929 5.44396 -0.106693 7.49356 0.0181108 9.53789C0.0444779 9.9791 0.424163 10.3148 0.865372 10.2885C1.30658 10.2621 1.64232 9.88242 1.61595 9.44121C1.40326 5.94142 3.71125 2.74925 7.10557 1.84926C9.70712 1.1602 12.444 1.93539 14.2932 3.8303L13.0452 4.50178L16.9247 6.89943L17.0635 2.34144L15.7504 3.04808C14.7239 1.88441 13.4161 1.00727 11.9395 0.493993C10.2468 -0.0913554 8.43447 -0.158152 6.696 0.302392C5.66593 0.574852 4.70441 1.02133 3.83957 1.62778ZM0.937441 15.6586L2.25052 14.9537C3.27708 16.1173 4.58488 16.9945 6.06144 17.506C7.7542 18.0914 9.56649 18.1582 11.305 17.6976C11.9817 17.5183 12.6286 17.2652 13.2385 16.94C13.5567 16.7712 13.8643 16.5814 14.1614 16.374C14.9981 15.7886 15.7223 15.0697 16.3182 14.2365C17.5153 12.5631 18.1077 10.5152 17.9846 8.47266C17.9582 8.03145 17.5786 7.69571 17.1374 7.72208C16.6961 7.74844 16.3604 8.12813 16.3868 8.56934C16.5942 12.0621 14.2844 15.2507 10.8954 16.1507C8.29385 16.8398 5.55695 16.0646 3.70774 14.1697L4.95578 13.4982L1.07631 11.1006L0.937441 15.6586Z" fill="#333333"/>
</svg>
