<svg width="22" height="22" viewBox="0 0 22 22" fill="none" xmlns="http://www.w3.org/2000/svg">
<path d="M21.5998 1.1C21.4998 0.800004 21.1998 0.500004 20.8998 0.400004C16.6998 -0.699996 12.3998 0.600004 9.4998 4L8.3998 5.3L5.6998 4.7C4.3998 4.2 2.9998 4.8 2.3998 6L0.199805 9.9C-0.00019531 10.2 -0.00019531 10.5 0.199805 10.8C0.299805 11.1 0.599805 11.3 0.899805 11.4L3.9998 12.1C3.6998 12.9 3.5998 13.7 3.3998 14.5C3.3998 14.8 3.4998 15.1 3.6998 15.3L6.7998 18.4C6.9998 18.6 7.1998 18.7 7.4998 18.7H7.5998C8.4998 18.6 9.2998 18.5 10.0998 18.2L10.6998 21.2C10.7998 21.5 10.9998 21.8 11.2998 21.9C11.3998 22 11.5998 22 11.6998 22C11.8998 22 11.9998 22 12.1998 21.9L16.0998 19.7C17.1998 19.1 17.7998 17.7 17.4998 16.4L16.7998 13.6L17.9998 12.5C21.2998 9.7 22.6998 5.2 21.5998 1.1ZM6.2998 7.8C5.6998 8.6 5.0998 9.4 4.6998 10.2L2.5998 9.7L4.0998 7C4.2998 6.6 4.6998 6.5 5.1998 6.6L6.8998 7L6.2998 7.8ZM14.9998 17.9L12.2998 19.4L11.8998 17.4C12.7998 17 13.5998 16.4 14.2998 15.8L14.9998 15.1L15.3998 16.8C15.5998 17.3 15.2998 17.8 14.9998 17.9ZM15.6998 7.8C14.8998 7.8 14.1998 7.1 14.1998 6.3C14.1998 5.5 14.8998 4.8 15.6998 4.8C16.4998 4.8 17.1998 5.5 17.1998 6.3C17.1998 7.1 16.5998 7.8 15.6998 7.8Z" fill="#3F8CFF"/>
</svg>
